<svg width="352" height="283" viewBox="0 0 352 283" fill="none" xmlns="http://www.w3.org/2000/svg">
<g clip-path="url(#clip0_1_13474)">
<path d="M270.551 144.306C270.886 143.856 271.122 143.335 271.242 142.781C271.362 142.226 271.362 141.651 271.244 141.097C271.125 140.542 270.89 140.021 270.556 139.57C270.221 139.119 269.795 138.749 269.307 138.487L270.05 129.64L264.954 127.862L264.074 140.371C263.702 141.247 263.653 142.233 263.938 143.143C264.223 144.053 264.821 144.824 265.62 145.309C266.418 145.794 267.36 145.96 268.269 145.775C269.177 145.59 269.989 145.068 270.549 144.306L270.551 144.306Z" fill="#D4C2A8"/>
<path d="M295.977 213.094H291.392L289.21 194.817H295.981L295.977 213.094Z" fill="#D4C2A8"/>
<path d="M288.114 211.739H296.962V217.493H282.544C282.544 215.967 283.131 214.503 284.175 213.424C285.22 212.345 286.637 211.739 288.114 211.739Z" fill="#164765"/>
<path d="M285.565 200.966L281.111 202.097L274.769 184.888L281.343 183.219L285.565 200.966Z" fill="#D4C2A8"/>
<path d="M277.679 201.426L286.27 199.242L287.601 204.829L273.602 208.388C273.249 206.906 273.48 205.34 274.245 204.035C275.009 202.729 276.245 201.791 277.679 201.426V201.426Z" fill="#164765"/>
<path d="M290.61 207.266C290.191 207.267 289.787 207.107 289.475 206.818C289.164 206.529 288.968 206.13 288.925 205.7L283.647 154.909L279.054 170.441L285.56 194.7C285.672 195.116 285.631 195.559 285.445 195.946C285.26 196.333 284.943 196.635 284.554 196.795L279.382 198.932C279.169 199.02 278.941 199.062 278.712 199.057C278.482 199.051 278.257 198.998 278.048 198.9C277.839 198.801 277.652 198.66 277.497 198.485C277.343 198.31 277.224 198.105 277.149 197.881L269.176 174.254C268.303 171.674 267.917 168.946 268.038 166.216L269.151 140.718L298.461 142L298.004 205.085C297.998 205.524 297.835 205.945 297.544 206.266C297.254 206.587 296.858 206.785 296.434 206.82L290.742 207.263C290.698 207.265 290.654 207.266 290.61 207.266Z" fill="#447C9D"/>
<path d="M285.755 84.288C291.198 84.288 295.611 79.7306 295.611 74.1087C295.611 68.4869 291.198 63.9294 285.755 63.9294C280.312 63.9294 275.899 68.4869 275.899 74.1087C275.899 79.7306 280.312 84.288 285.755 84.288Z" fill="#D4C2A8"/>
<path d="M293.003 143.658C290.408 143.658 287.185 143.439 283.847 143.212C279.289 142.902 274.575 142.582 271.057 142.793C270.581 142.841 270.102 142.763 269.664 142.567C269.227 142.37 268.845 142.06 268.556 141.668C264.929 136.871 270.522 118.165 270.763 117.371L275.315 96.4551L275.511 96.5007L275.315 96.4551C276.318 91.8547 279.517 88.4612 283.667 87.5991C287.551 86.7934 291.308 88.3994 293.718 91.899C293.846 92.0847 293.973 92.2752 294.101 92.4706C301.947 104.472 297.509 134.288 297.212 136.211C297.626 136.724 299.867 139.623 299.251 141.637C299 142.456 298.32 143.014 297.228 143.294C295.837 143.579 294.419 143.701 293.002 143.657L293.003 143.658Z" fill="#164765"/>
<path d="M271.216 143.667C270.323 143.667 269.119 143.327 267.495 142.631C266.797 142.331 264.674 141.419 267.252 118.149C268.519 106.718 270.333 95.3675 270.351 95.2544L270.368 95.1449L270.466 95.0994C270.512 95.0774 275.146 92.8841 275.951 90.0655C275.978 89.9679 276.009 89.8733 276.045 89.7816C276.267 89.155 276.714 88.6411 277.294 88.347C277.874 88.053 278.541 88.0015 279.157 88.2034C279.807 88.3639 280.374 88.7739 280.742 89.3502C281.11 89.9266 281.253 90.6261 281.14 91.3067C280.859 93.1452 280.32 94.9313 279.538 96.6084C277.358 101.254 275.881 113.571 275.867 113.695C275.783 114.747 273.805 139.669 273.424 141.56C273.29 142.221 273.046 143.029 272.327 143.421C271.982 143.597 271.601 143.682 271.217 143.67L271.216 143.667Z" fill="#447C9D"/>
<path d="M281.982 142.713C281.802 142.713 281.627 142.651 281.485 142.536C278.585 140.261 283.278 112.675 286.059 103.157C286.617 101.251 287.113 99.619 287.534 98.3056C288.303 95.9489 288.839 93.5181 289.135 91.0502C289.288 89.7132 289.621 88.9498 290.153 88.7157C290.523 88.5528 290.956 88.6634 291.445 89.0443C294.016 88.9133 296.514 89.9975 298.829 91.1916L300.912 92.265L303.25 135.015C303.184 137.743 297.977 139.669 295.706 139.792C292.059 139.99 285.51 140.603 282.624 142.49C282.435 142.626 282.213 142.703 281.982 142.712L281.982 142.713Z" fill="#447C9D"/>
<path d="M268.958 134.691C268.924 134.691 268.889 134.691 268.855 134.688L264.132 134.388C263.897 134.373 263.668 134.308 263.458 134.196C263.249 134.085 263.064 133.93 262.916 133.74C262.768 133.551 262.66 133.332 262.598 133.097C262.537 132.863 262.523 132.617 262.558 132.377L264.695 117.755L268.717 97.24C268.816 96.7347 269.017 96.2565 269.307 95.8364C269.596 95.4164 269.968 95.0639 270.398 94.8017C270.828 94.5396 271.306 94.3736 271.802 94.3147C272.298 94.2557 272.8 94.305 273.277 94.4595V94.4595C274.091 94.7278 274.785 95.2879 275.235 96.0388C275.684 96.7896 275.859 97.6816 275.728 98.5538L272.532 119.11L270.64 133.18C270.582 133.598 270.38 133.981 270.071 134.259C269.762 134.536 269.367 134.69 268.958 134.691H268.958Z" fill="#164765"/>
<path d="M285.09 118.687C285.378 118.203 285.766 117.79 286.225 117.478C286.684 117.165 287.204 116.96 287.748 116.877C288.293 116.795 288.848 116.836 289.375 116.999C289.902 117.162 290.388 117.442 290.798 117.82L298.541 113.957L301.961 118.244L290.953 123.541C290.293 124.211 289.417 124.608 288.492 124.657C287.568 124.705 286.658 124.402 285.935 123.803C285.212 123.205 284.727 122.354 284.571 121.411C284.416 120.468 284.6 119.499 285.09 118.687Z" fill="#D4C2A8"/>
<path d="M295.846 122.835C295.465 122.835 295.095 122.703 294.795 122.459C294.496 122.216 294.284 121.875 294.195 121.492L293.072 116.664C292.986 116.301 293.015 115.919 293.155 115.574C293.295 115.23 293.539 114.94 293.85 114.75L300.632 110.557L297.165 97.4463C296.865 96.3236 297.002 95.1242 297.548 94.1049C298.093 93.0856 299.004 92.3274 300.084 91.9926C301.164 91.6578 302.328 91.7729 303.327 92.3135C304.325 92.854 305.08 93.7769 305.428 94.8846L309.256 106.955C309.726 108.427 309.73 110.015 309.266 111.489C308.803 112.962 307.897 114.245 306.679 115.15L296.84 122.503C296.551 122.719 296.203 122.835 295.846 122.835V122.835Z" fill="#164765"/>
<path d="M222.573 0H32.6932C30.9187 0.00219362 29.2175 0.731233 27.9627 2.0272C26.708 3.32316 26.0021 5.08023 26 6.913V28.0167C26.0021 29.8495 26.708 31.6066 27.9627 32.9025C29.2175 34.1985 30.9187 34.9275 32.6932 34.9297H222.573C224.348 34.9275 226.049 34.1985 227.304 32.9025C228.559 31.6066 229.265 29.8495 229.267 28.0167V6.913C229.265 5.08023 228.559 3.32316 227.304 2.0272C226.049 0.731233 224.348 0.00219362 222.573 0ZM228.562 28.0167C228.56 29.6564 227.928 31.2282 226.805 32.3877C225.683 33.5471 224.161 34.1995 222.573 34.202H32.6932C31.1057 34.1995 29.5838 33.5471 28.4612 32.3877C27.3387 31.2282 26.707 29.6564 26.7046 28.0167V6.913C26.707 5.27332 27.3387 3.70148 28.4612 2.54205C29.5838 1.38261 31.1057 0.730182 32.6932 0.727771H222.573C224.161 0.730182 225.683 1.38261 226.805 2.54205C227.928 3.70148 228.56 5.27332 228.562 6.913V28.0167Z" fill="#3F3D56"/>
<path d="M222.573 84.7767H32.6932C30.9187 84.7745 29.2175 84.0455 27.9627 82.7495C26.708 81.4536 26.0021 79.6965 26 77.8637V56.7604C26.0021 54.9277 26.708 53.1706 27.9627 51.8746C29.2175 50.5787 30.9187 49.8496 32.6932 49.8474H222.573C224.348 49.8496 226.049 50.5787 227.304 51.8746C228.559 53.1706 229.265 54.9277 229.267 56.7604V77.8637C229.265 79.6965 228.559 81.4536 227.304 82.7495C226.049 84.0455 224.348 84.7745 222.573 84.7767ZM32.6932 50.5752C31.1055 50.5771 29.5833 51.2293 28.4607 52.3889C27.338 53.5484 26.7064 55.1206 26.7046 56.7604V77.8637C26.7061 79.5038 27.3375 81.0763 28.4602 82.2361C29.5829 83.3959 31.1053 84.0483 32.6932 84.0502H222.573C224.161 84.0485 225.683 83.3963 226.806 82.2367C227.929 81.0771 228.561 79.5049 228.562 77.865V56.7604C228.561 55.1206 227.929 53.5484 226.806 52.3889C225.684 51.2293 224.162 50.5771 222.574 50.5752H32.6932Z" fill="#CCCCCC"/>
<path d="M222.573 134.624H32.6932C30.9187 134.622 29.2175 133.893 27.9627 132.597C26.708 131.301 26.0021 129.544 26 127.711V106.608C26.0021 104.775 26.708 103.018 27.9627 101.722C29.2175 100.426 30.9187 99.697 32.6932 99.6948H222.573C224.348 99.697 226.049 100.426 227.304 101.722C228.559 103.018 229.265 104.775 229.267 106.608V127.711C229.265 129.544 228.559 131.301 227.304 132.597C226.049 133.893 224.348 134.622 222.573 134.624ZM32.6932 100.421C31.1055 100.423 29.5833 101.075 28.4607 102.235C27.338 103.394 26.7064 104.966 26.7046 106.606V127.709C26.7063 129.349 27.3378 130.922 28.4605 132.081C29.5832 133.241 31.1054 133.893 32.6932 133.895H222.573C224.161 133.893 225.683 133.241 226.806 132.082C227.929 130.922 228.561 129.35 228.562 127.71V106.608C228.561 104.968 227.93 103.395 226.807 102.235C225.684 101.075 224.161 100.423 222.573 100.421H32.6932Z" fill="#CCCCCC"/>
<path d="M58.35 29.4972C56.0459 29.4972 53.7935 28.7915 51.8777 27.4694C49.9619 26.1472 48.4687 24.2681 47.587 22.0694C46.7052 19.8708 46.4745 17.4515 46.924 15.1175C47.3736 12.7835 48.4831 10.6395 50.1123 8.95679C51.7416 7.27405 53.8174 6.12809 56.0772 5.66382C58.337 5.19955 60.6794 5.43783 62.8081 6.34852C64.9369 7.25922 66.7563 8.80142 68.0364 10.7801C69.3165 12.7588 69.9997 15.0851 69.9997 17.4649C69.9997 20.6561 68.7724 23.7165 66.5876 25.973C64.4028 28.2295 61.4397 29.4972 58.35 29.4972Z" fill="#447C9D"/>
<path d="M205.373 27.2886H81.0185C80.2711 27.2886 79.5542 26.9819 79.0257 26.436C78.4971 25.8901 78.2002 25.1497 78.2002 24.3777C78.2002 23.6057 78.4971 22.8653 79.0257 22.3194C79.5542 21.7735 80.2711 21.4668 81.0185 21.4668H205.373C206.121 21.4668 206.837 21.7735 207.366 22.3194C207.895 22.8653 208.192 23.6057 208.192 24.3777C208.192 25.1497 207.895 25.8901 207.366 26.436C206.837 26.9819 206.121 27.2886 205.373 27.2886Z" fill="#CCCCCC"/>
<path d="M164.858 14.9177H81.0156C80.2681 14.9177 79.5513 14.611 79.0227 14.0651C78.4942 13.5192 78.1973 12.7788 78.1973 12.0068C78.1973 11.2348 78.4942 10.4944 79.0227 9.94852C79.5513 9.40263 80.2681 9.09595 81.0156 9.09595H164.858C165.606 9.09595 166.323 9.40263 166.851 9.94852C167.38 10.4944 167.677 11.2348 167.677 12.0068C167.677 12.7788 167.38 13.5192 166.851 14.0651C166.323 14.611 165.606 14.9177 164.858 14.9177Z" fill="#CCCCCC"/>
<path d="M58.35 79.3441C56.0459 79.3441 53.7935 78.6384 51.8777 77.3163C49.9619 75.9942 48.4687 74.115 47.587 71.9164C46.7052 69.7178 46.4745 67.2985 46.924 64.9644C47.3736 62.6304 48.4831 60.4865 50.1123 58.8037C51.7416 57.121 53.8174 55.975 56.0772 55.5107C58.337 55.0465 60.6794 55.2848 62.8081 56.1955C64.9369 57.1061 66.7563 58.6484 68.0364 60.627C69.3165 62.6057 69.9997 64.9321 69.9997 67.3118C69.9997 70.503 68.7724 73.5634 66.5876 75.8199C64.4028 78.0764 61.4397 79.3441 58.35 79.3441Z" fill="#E6E6E6"/>
<path d="M205.373 77.136H81.0185C80.2711 77.136 79.5542 76.8293 79.0257 76.2834C78.4971 75.7375 78.2002 74.9971 78.2002 74.2251C78.2002 73.4531 78.4971 72.7127 79.0257 72.1668C79.5542 71.6209 80.2711 71.3142 81.0185 71.3142H205.373C206.121 71.3142 206.837 71.6209 207.366 72.1668C207.895 72.7127 208.192 73.4531 208.192 74.2251C208.192 74.9971 207.895 75.7375 207.366 76.2834C206.837 76.8293 206.121 77.136 205.373 77.136Z" fill="#E6E6E6"/>
<path d="M164.858 64.7651H81.0156C80.2681 64.7651 79.5513 64.4584 79.0227 63.9125C78.4942 63.3666 78.1973 62.6263 78.1973 61.8542C78.1973 61.0822 78.4942 60.3418 79.0227 59.7959C79.5513 59.25 80.2681 58.9434 81.0156 58.9434H164.858C165.606 58.9434 166.323 59.25 166.851 59.7959C167.38 60.3418 167.677 61.0822 167.677 61.8542C167.677 62.6263 167.38 63.3666 166.851 63.9125C166.323 64.4584 165.606 64.7651 164.858 64.7651Z" fill="#E6E6E6"/>
<path d="M58.35 129.192C56.0459 129.192 53.7935 128.486 51.8777 127.164C49.9619 125.842 48.4687 123.962 47.587 121.764C46.7052 119.565 46.4745 117.146 46.924 114.812C47.3736 112.478 48.4831 110.334 50.1123 108.651C51.7416 106.968 53.8174 105.822 56.0772 105.358C58.337 104.894 60.6794 105.132 62.8081 106.043C64.9369 106.954 66.7563 108.496 68.0364 110.474C69.3165 112.453 69.9997 114.779 69.9997 117.159C69.9997 120.35 68.7724 123.411 66.5876 125.667C64.4028 127.924 61.4397 129.192 58.35 129.192Z" fill="#E6E6E6"/>
<path d="M205.373 126.983H81.0185C80.2711 126.983 79.5542 126.677 79.0257 126.131C78.4971 125.585 78.2002 124.845 78.2002 124.073C78.2002 123.3 78.4971 122.56 79.0257 122.014C79.5542 121.468 80.2711 121.162 81.0185 121.162H205.373C206.121 121.162 206.837 121.468 207.366 122.014C207.895 122.56 208.192 123.3 208.192 124.073C208.192 124.845 207.895 125.585 207.366 126.131C206.837 126.677 206.121 126.983 205.373 126.983Z" fill="#E6E6E6"/>
<path d="M164.858 114.613H81.0156C80.2681 114.613 79.5513 114.306 79.0227 113.76C78.4942 113.214 78.1973 112.474 78.1973 111.702C78.1973 110.93 78.4942 110.189 79.0227 109.643C79.5513 109.097 80.2681 108.791 81.0156 108.791H164.858C165.606 108.791 166.323 109.097 166.851 109.643C167.38 110.189 167.677 110.93 167.677 111.702C167.677 112.474 167.38 113.214 166.851 113.76C166.323 114.306 165.606 114.613 164.858 114.613Z" fill="#E6E6E6"/>
<path d="M57.7556 21.6972C57.4663 21.6979 57.1846 21.6013 56.9531 21.422L56.9386 21.4108L53.9191 19.0252C53.7792 18.9145 53.6618 18.7764 53.5736 18.6188C53.4855 18.4613 53.4282 18.2873 53.4051 18.1068C53.382 17.9264 53.3936 17.743 53.4391 17.5672C53.4846 17.3914 53.5633 17.2265 53.6705 17.0821C53.7777 16.9376 53.9114 16.8164 54.064 16.7253C54.2165 16.6343 54.385 16.5751 54.5597 16.5513C54.7344 16.5274 54.9119 16.5394 55.0821 16.5864C55.2524 16.6334 55.412 16.7146 55.5518 16.8253L57.5077 18.3746L62.1291 12.147C62.3456 11.8556 62.6652 11.6648 63.0179 11.6167C63.3705 11.5686 63.7272 11.6671 64.0095 11.8905L63.981 11.9319L64.0103 11.8905C64.2922 12.1144 64.4766 12.4447 64.5231 12.8088C64.5696 13.173 64.4744 13.5413 64.2583 13.833L58.8222 21.1547C58.6963 21.3231 58.5345 21.4592 58.3494 21.5527C58.1643 21.6461 57.9609 21.6943 57.7548 21.6935L57.7556 21.6972Z" fill="white"/>
<path d="M325.599 218H246.146C246.04 218 245.938 217.956 245.863 217.879C245.787 217.801 245.745 217.696 245.745 217.586C245.745 217.476 245.787 217.37 245.863 217.293C245.938 217.215 246.04 217.171 246.146 217.171H325.599C325.705 217.171 325.807 217.215 325.882 217.293C325.958 217.37 326 217.476 326 217.586C326 217.696 325.958 217.801 325.882 217.879C325.807 217.956 325.705 218 325.599 218Z" fill="#CCCCCC"/>
<path d="M289.379 76.8221C289.379 76.8221 288.179 69.9728 285.45 70.7911C282.721 71.6095 275.697 72.4468 275.684 69.2211C275.671 65.9955 282.296 63.1444 286.201 63.5303C290.107 63.9161 296.748 65.0967 296.382 71.1463C296.089 74.9565 294.949 78.6455 293.05 81.9261L289.379 76.8221Z" fill="#164765"/>
</g>
<path d="M31.056 258.126C30.216 258.126 29.46 257.982 28.788 257.694C28.116 257.394 27.588 256.974 27.204 256.434C26.82 255.894 26.628 255.264 26.628 254.544H28.824C28.872 255.084 29.082 255.528 29.454 255.876C29.838 256.224 30.372 256.398 31.056 256.398C31.764 256.398 32.316 256.23 32.712 255.894C33.108 255.546 33.306 255.102 33.306 254.562C33.306 254.142 33.18 253.8 32.928 253.536C32.688 253.272 32.382 253.068 32.01 252.924C31.65 252.78 31.146 252.624 30.498 252.456C29.682 252.24 29.016 252.024 28.5 251.808C27.996 251.58 27.564 251.232 27.204 250.764C26.844 250.296 26.664 249.672 26.664 248.892C26.664 248.172 26.844 247.542 27.204 247.002C27.564 246.462 28.068 246.048 28.716 245.76C29.364 245.472 30.114 245.328 30.966 245.328C32.178 245.328 33.168 245.634 33.936 246.246C34.716 246.846 35.148 247.674 35.232 248.73H32.964C32.928 248.274 32.712 247.884 32.316 247.56C31.92 247.236 31.398 247.074 30.75 247.074C30.162 247.074 29.682 247.224 29.31 247.524C28.938 247.824 28.752 248.256 28.752 248.82C28.752 249.204 28.866 249.522 29.094 249.774C29.334 250.014 29.634 250.206 29.994 250.35C30.354 250.494 30.846 250.65 31.47 250.818C32.298 251.046 32.97 251.274 33.486 251.502C34.014 251.73 34.458 252.084 34.818 252.564C35.19 253.032 35.376 253.662 35.376 254.454C35.376 255.09 35.202 255.69 34.854 256.254C34.518 256.818 34.02 257.274 33.36 257.622C32.712 257.958 31.944 258.126 31.056 258.126ZM42.0993 258.162C41.1633 258.162 40.3173 257.952 39.5613 257.532C38.8053 257.1 38.2113 256.5 37.7793 255.732C37.3473 254.952 37.1313 254.052 37.1313 253.032C37.1313 252.024 37.3533 251.13 37.7973 250.35C38.2413 249.57 38.8473 248.97 39.6153 248.55C40.3833 248.13 41.2413 247.92 42.1893 247.92C43.1373 247.92 43.9953 248.13 44.7633 248.55C45.5313 248.97 46.1373 249.57 46.5813 250.35C47.0253 251.13 47.2473 252.024 47.2473 253.032C47.2473 254.04 47.0193 254.934 46.5633 255.714C46.1073 256.494 45.4833 257.1 44.6913 257.532C43.9113 257.952 43.0473 258.162 42.0993 258.162ZM42.0993 256.38C42.6273 256.38 43.1193 256.254 43.5753 256.002C44.0433 255.75 44.4213 255.372 44.7093 254.868C44.9973 254.364 45.1413 253.752 45.1413 253.032C45.1413 252.312 45.0033 251.706 44.7273 251.214C44.4513 250.71 44.0853 250.332 43.6293 250.08C43.1733 249.828 42.6813 249.702 42.1533 249.702C41.6253 249.702 41.1333 249.828 40.6773 250.08C40.2333 250.332 39.8793 250.71 39.6153 251.214C39.3513 251.706 39.2193 252.312 39.2193 253.032C39.2193 254.1 39.4893 254.928 40.0293 255.516C40.5813 256.092 41.2713 256.38 42.0993 256.38ZM51.3278 249.522C51.6278 249.018 52.0238 248.628 52.5158 248.352C53.0198 248.064 53.6138 247.92 54.2978 247.92V250.044H53.7758C52.9718 250.044 52.3598 250.248 51.9398 250.656C51.5318 251.064 51.3278 251.772 51.3278 252.78V258H49.2758V248.082H51.3278V249.522ZM58.236 249.522C58.536 249.018 58.932 248.628 59.424 248.352C59.928 248.064 60.522 247.92 61.206 247.92V250.044H60.684C59.88 250.044 59.268 250.248 58.848 250.656C58.44 251.064 58.236 251.772 58.236 252.78V258H56.184V248.082H58.236V249.522ZM72.0202 248.082L65.9362 262.662H63.8122L65.8282 257.838L61.9222 248.082H64.2082L66.9982 255.642L69.8962 248.082H72.0202ZM75.8188 255.534L73.6408 260.502H72.3088L73.5868 255.534H75.8188ZM91.2155 248.082L85.1315 262.662H83.0075L85.0235 257.838L81.1175 248.082H83.4035L86.1935 255.642L89.0915 248.082H91.2155ZM97.0661 258.162C96.1301 258.162 95.2841 257.952 94.5281 257.532C93.7721 257.1 93.1781 256.5 92.7461 255.732C92.3141 254.952 92.0981 254.052 92.0981 253.032C92.0981 252.024 92.3201 251.13 92.7641 250.35C93.2081 249.57 93.8141 248.97 94.5821 248.55C95.3501 248.13 96.2081 247.92 97.1561 247.92C98.1041 247.92 98.9621 248.13 99.7301 248.55C100.498 248.97 101.104 249.57 101.548 250.35C101.992 251.13 102.214 252.024 102.214 253.032C102.214 254.04 101.986 254.934 101.53 255.714C101.074 256.494 100.45 257.1 99.6581 257.532C98.8781 257.952 98.0141 258.162 97.0661 258.162ZM97.0661 256.38C97.5941 256.38 98.0861 256.254 98.5421 256.002C99.0101 255.75 99.3881 255.372 99.6761 254.868C99.9641 254.364 100.108 253.752 100.108 253.032C100.108 252.312 99.9701 251.706 99.6941 251.214C99.4181 250.71 99.0521 250.332 98.5961 250.08C98.1401 249.828 97.6481 249.702 97.1201 249.702C96.5921 249.702 96.1001 249.828 95.6441 250.08C95.2001 250.332 94.8461 250.71 94.5821 251.214C94.3181 251.706 94.1861 252.312 94.1861 253.032C94.1861 254.1 94.4561 254.928 94.9961 255.516C95.5481 256.092 96.2381 256.38 97.0661 256.38ZM113.225 248.082V258H111.173V256.83C110.849 257.238 110.423 257.562 109.895 257.802C109.379 258.03 108.827 258.144 108.239 258.144C107.459 258.144 106.757 257.982 106.133 257.658C105.521 257.334 105.035 256.854 104.675 256.218C104.327 255.582 104.153 254.814 104.153 253.914V248.082H106.187V253.608C106.187 254.496 106.409 255.18 106.853 255.66C107.297 256.128 107.903 256.362 108.671 256.362C109.439 256.362 110.045 256.128 110.489 255.66C110.945 255.18 111.173 254.496 111.173 253.608V248.082H113.225ZM117.984 249.522C118.284 249.018 118.68 248.628 119.172 248.352C119.676 248.064 120.27 247.92 120.954 247.92V250.044H120.432C119.628 250.044 119.016 250.248 118.596 250.656C118.188 251.064 117.984 251.772 117.984 252.78V258H115.932V248.082H117.984V249.522ZM131.116 258.162C130.336 258.162 129.634 258.024 129.01 257.748C128.398 257.46 127.912 257.076 127.552 256.596C127.192 256.104 127 255.558 126.976 254.958H129.1C129.136 255.378 129.334 255.732 129.694 256.02C130.066 256.296 130.528 256.434 131.08 256.434C131.656 256.434 132.1 256.326 132.412 256.11C132.736 255.882 132.898 255.594 132.898 255.246C132.898 254.874 132.718 254.598 132.358 254.418C132.01 254.238 131.452 254.04 130.684 253.824C129.94 253.62 129.334 253.422 128.866 253.23C128.398 253.038 127.99 252.744 127.642 252.348C127.306 251.952 127.138 251.43 127.138 250.782C127.138 250.254 127.294 249.774 127.606 249.342C127.918 248.898 128.362 248.55 128.938 248.298C129.526 248.046 130.198 247.92 130.954 247.92C132.082 247.92 132.988 248.208 133.672 248.784C134.368 249.348 134.74 250.122 134.788 251.106H132.736C132.7 250.662 132.52 250.308 132.196 250.044C131.872 249.78 131.434 249.648 130.882 249.648C130.342 249.648 129.928 249.75 129.64 249.954C129.352 250.158 129.208 250.428 129.208 250.764C129.208 251.028 129.304 251.25 129.496 251.43C129.688 251.61 129.922 251.754 130.198 251.862C130.474 251.958 130.882 252.084 131.422 252.24C132.142 252.432 132.73 252.63 133.186 252.834C133.654 253.026 134.056 253.314 134.392 253.698C134.728 254.082 134.902 254.592 134.914 255.228C134.914 255.792 134.758 256.296 134.446 256.74C134.134 257.184 133.69 257.532 133.114 257.784C132.55 258.036 131.884 258.162 131.116 258.162ZM146.221 252.798C146.221 253.17 146.197 253.506 146.149 253.806H138.571C138.631 254.598 138.925 255.234 139.453 255.714C139.981 256.194 140.629 256.434 141.397 256.434C142.501 256.434 143.281 255.972 143.737 255.048H145.951C145.651 255.96 145.105 256.71 144.313 257.298C143.533 257.874 142.561 258.162 141.397 258.162C140.449 258.162 139.597 257.952 138.841 257.532C138.097 257.1 137.509 256.5 137.077 255.732C136.657 254.952 136.447 254.052 136.447 253.032C136.447 252.012 136.651 251.118 137.059 250.35C137.479 249.57 138.061 248.97 138.805 248.55C139.561 248.13 140.425 247.92 141.397 247.92C142.333 247.92 143.167 248.124 143.899 248.532C144.631 248.94 145.201 249.516 145.609 250.26C146.017 250.992 146.221 251.838 146.221 252.798ZM144.079 252.15C144.067 251.394 143.797 250.788 143.269 250.332C142.741 249.876 142.087 249.648 141.307 249.648C140.599 249.648 139.993 249.876 139.489 250.332C138.985 250.776 138.685 251.382 138.589 252.15H144.079ZM147.557 252.996C147.557 252 147.761 251.118 148.169 250.35C148.589 249.582 149.153 248.988 149.861 248.568C150.581 248.136 151.373 247.92 152.237 247.92C153.017 247.92 153.695 248.076 154.271 248.388C154.859 248.688 155.327 249.066 155.675 249.522V248.082H157.745V258H155.675V256.524C155.327 256.992 154.853 257.382 154.253 257.694C153.653 258.006 152.969 258.162 152.201 258.162C151.349 258.162 150.569 257.946 149.861 257.514C149.153 257.07 148.589 256.458 148.169 255.678C147.761 254.886 147.557 253.992 147.557 252.996ZM155.675 253.032C155.675 252.348 155.531 251.754 155.243 251.25C154.967 250.746 154.601 250.362 154.145 250.098C153.689 249.834 153.197 249.702 152.669 249.702C152.141 249.702 151.649 249.834 151.193 250.098C150.737 250.35 150.365 250.728 150.077 251.232C149.801 251.724 149.663 252.312 149.663 252.996C149.663 253.68 149.801 254.28 150.077 254.796C150.365 255.312 150.737 255.708 151.193 255.984C151.661 256.248 152.153 256.38 152.669 256.38C153.197 256.38 153.689 256.248 154.145 255.984C154.601 255.72 154.967 255.336 155.243 254.832C155.531 254.316 155.675 253.716 155.675 253.032ZM162.492 249.522C162.792 249.018 163.188 248.628 163.68 248.352C164.184 248.064 164.778 247.92 165.462 247.92V250.044H164.94C164.136 250.044 163.524 250.248 163.104 250.656C162.696 251.064 162.492 251.772 162.492 252.78V258H160.44V248.082H162.492V249.522ZM166.664 253.032C166.664 252.012 166.868 251.118 167.276 250.35C167.696 249.57 168.272 248.97 169.004 248.55C169.736 248.13 170.576 247.92 171.524 247.92C172.724 247.92 173.714 248.208 174.494 248.784C175.286 249.348 175.82 250.158 176.096 251.214H173.882C173.702 250.722 173.414 250.338 173.018 250.062C172.622 249.786 172.124 249.648 171.524 249.648C170.684 249.648 170.012 249.948 169.508 250.548C169.016 251.136 168.77 251.964 168.77 253.032C168.77 254.1 169.016 254.934 169.508 255.534C170.012 256.134 170.684 256.434 171.524 256.434C172.712 256.434 173.498 255.912 173.882 254.868H176.096C175.808 255.876 175.268 256.68 174.476 257.28C173.684 257.868 172.7 258.162 171.524 258.162C170.576 258.162 169.736 257.952 169.004 257.532C168.272 257.1 167.696 256.5 167.276 255.732C166.868 254.952 166.664 254.052 166.664 253.032ZM183.271 247.92C184.027 247.92 184.699 248.082 185.287 248.406C185.887 248.73 186.355 249.21 186.691 249.846C187.039 250.482 187.213 251.25 187.213 252.15V258H185.179V252.456C185.179 251.568 184.957 250.89 184.513 250.422C184.069 249.942 183.463 249.702 182.695 249.702C181.927 249.702 181.315 249.942 180.859 250.422C180.415 250.89 180.193 251.568 180.193 252.456V258H178.141V244.68H180.193V249.234C180.541 248.814 180.979 248.49 181.507 248.262C182.047 248.034 182.635 247.92 183.271 247.92ZM207.826 248.082L204.748 258H202.588L200.59 250.674L198.592 258H196.432L193.336 248.082H195.424L197.494 256.056L199.6 248.082H201.742L203.758 256.02L205.81 248.082H207.826ZM208.676 252.996C208.676 252 208.88 251.118 209.288 250.35C209.708 249.582 210.272 248.988 210.98 248.568C211.7 248.136 212.492 247.92 213.356 247.92C214.136 247.92 214.814 248.076 215.39 248.388C215.978 248.688 216.446 249.066 216.794 249.522V248.082H218.864V258H216.794V256.524C216.446 256.992 215.972 257.382 215.372 257.694C214.772 258.006 214.088 258.162 213.32 258.162C212.468 258.162 211.688 257.946 210.98 257.514C210.272 257.07 209.708 256.458 209.288 255.678C208.88 254.886 208.676 253.992 208.676 252.996ZM216.794 253.032C216.794 252.348 216.65 251.754 216.362 251.25C216.086 250.746 215.72 250.362 215.264 250.098C214.808 249.834 214.316 249.702 213.788 249.702C213.26 249.702 212.768 249.834 212.312 250.098C211.856 250.35 211.484 250.728 211.196 251.232C210.92 251.724 210.782 252.312 210.782 252.996C210.782 253.68 210.92 254.28 211.196 254.796C211.484 255.312 211.856 255.708 212.312 255.984C212.78 256.248 213.272 256.38 213.788 256.38C214.316 256.38 214.808 256.248 215.264 255.984C215.72 255.72 216.086 255.336 216.362 254.832C216.65 254.316 216.794 253.716 216.794 253.032ZM225.159 258.162C224.379 258.162 223.677 258.024 223.053 257.748C222.441 257.46 221.955 257.076 221.595 256.596C221.235 256.104 221.043 255.558 221.019 254.958H223.143C223.179 255.378 223.377 255.732 223.737 256.02C224.109 256.296 224.571 256.434 225.123 256.434C225.699 256.434 226.143 256.326 226.455 256.11C226.779 255.882 226.941 255.594 226.941 255.246C226.941 254.874 226.761 254.598 226.401 254.418C226.053 254.238 225.495 254.04 224.727 253.824C223.983 253.62 223.377 253.422 222.909 253.23C222.441 253.038 222.033 252.744 221.685 252.348C221.349 251.952 221.181 251.43 221.181 250.782C221.181 250.254 221.337 249.774 221.649 249.342C221.961 248.898 222.405 248.55 222.981 248.298C223.569 248.046 224.241 247.92 224.997 247.92C226.125 247.92 227.031 248.208 227.715 248.784C228.411 249.348 228.783 250.122 228.831 251.106H226.779C226.743 250.662 226.563 250.308 226.239 250.044C225.915 249.78 225.477 249.648 224.925 249.648C224.385 249.648 223.971 249.75 223.683 249.954C223.395 250.158 223.251 250.428 223.251 250.764C223.251 251.028 223.347 251.25 223.539 251.43C223.731 251.61 223.965 251.754 224.241 251.862C224.517 251.958 224.925 252.084 225.465 252.24C226.185 252.432 226.773 252.63 227.229 252.834C227.697 253.026 228.099 253.314 228.435 253.698C228.771 254.082 228.945 254.592 228.957 255.228C228.957 255.792 228.801 256.296 228.489 256.74C228.177 257.184 227.733 257.532 227.157 257.784C226.593 258.036 225.927 258.162 225.159 258.162ZM240.854 247.92C241.634 247.92 242.33 248.082 242.942 248.406C243.566 248.73 244.052 249.21 244.4 249.846C244.748 250.482 244.922 251.25 244.922 252.15V258H242.888V252.456C242.888 251.568 242.666 250.89 242.222 250.422C241.778 249.942 241.172 249.702 240.404 249.702C239.636 249.702 239.024 249.942 238.568 250.422C238.124 250.89 237.902 251.568 237.902 252.456V258H235.85V248.082H237.902V249.216C238.238 248.808 238.664 248.49 239.18 248.262C239.708 248.034 240.266 247.92 240.854 247.92ZM251.841 258.162C250.905 258.162 250.059 257.952 249.303 257.532C248.547 257.1 247.953 256.5 247.521 255.732C247.089 254.952 246.873 254.052 246.873 253.032C246.873 252.024 247.095 251.13 247.539 250.35C247.983 249.57 248.589 248.97 249.357 248.55C250.125 248.13 250.983 247.92 251.931 247.92C252.879 247.92 253.737 248.13 254.505 248.55C255.273 248.97 255.879 249.57 256.323 250.35C256.767 251.13 256.989 252.024 256.989 253.032C256.989 254.04 256.761 254.934 256.305 255.714C255.849 256.494 255.225 257.1 254.433 257.532C253.653 257.952 252.789 258.162 251.841 258.162ZM251.841 256.38C252.369 256.38 252.861 256.254 253.317 256.002C253.785 255.75 254.163 255.372 254.451 254.868C254.739 254.364 254.883 253.752 254.883 253.032C254.883 252.312 254.745 251.706 254.469 251.214C254.193 250.71 253.827 250.332 253.371 250.08C252.915 249.828 252.423 249.702 251.895 249.702C251.367 249.702 250.875 249.828 250.419 250.08C249.975 250.332 249.621 250.71 249.357 251.214C249.093 251.706 248.961 252.312 248.961 253.032C248.961 254.1 249.231 254.928 249.771 255.516C250.323 256.092 251.013 256.38 251.841 256.38ZM261.412 249.756V255.246C261.412 255.618 261.496 255.888 261.664 256.056C261.844 256.212 262.144 256.29 262.564 256.29H263.824V258H262.204C261.28 258 260.572 257.784 260.08 257.352C259.588 256.92 259.342 256.218 259.342 255.246V249.756H258.172V248.082H259.342V245.616H261.412V248.082H263.824V249.756H261.412ZM274.549 249.756H272.713V258H270.643V249.756H269.473V248.082H270.643V247.38C270.643 246.24 270.943 245.412 271.543 244.896C272.155 244.368 273.109 244.104 274.405 244.104V245.814C273.781 245.814 273.343 245.934 273.091 246.174C272.839 246.402 272.713 246.804 272.713 247.38V248.082H274.549V249.756ZM280.67 258.162C279.734 258.162 278.888 257.952 278.132 257.532C277.376 257.1 276.782 256.5 276.35 255.732C275.918 254.952 275.702 254.052 275.702 253.032C275.702 252.024 275.924 251.13 276.368 250.35C276.812 249.57 277.418 248.97 278.186 248.55C278.954 248.13 279.812 247.92 280.76 247.92C281.708 247.92 282.566 248.13 283.334 248.55C284.102 248.97 284.708 249.57 285.152 250.35C285.596 251.13 285.818 252.024 285.818 253.032C285.818 254.04 285.59 254.934 285.134 255.714C284.678 256.494 284.054 257.1 283.262 257.532C282.482 257.952 281.618 258.162 280.67 258.162ZM280.67 256.38C281.198 256.38 281.69 256.254 282.146 256.002C282.614 255.75 282.992 255.372 283.28 254.868C283.568 254.364 283.712 253.752 283.712 253.032C283.712 252.312 283.574 251.706 283.298 251.214C283.022 250.71 282.656 250.332 282.2 250.08C281.744 249.828 281.252 249.702 280.724 249.702C280.196 249.702 279.704 249.828 279.248 250.08C278.804 250.332 278.45 250.71 278.186 251.214C277.922 251.706 277.79 252.312 277.79 253.032C277.79 254.1 278.06 254.928 278.6 255.516C279.152 256.092 279.842 256.38 280.67 256.38ZM296.828 248.082V258H294.776V256.83C294.452 257.238 294.026 257.562 293.498 257.802C292.982 258.03 292.43 258.144 291.842 258.144C291.062 258.144 290.36 257.982 289.736 257.658C289.124 257.334 288.638 256.854 288.278 256.218C287.93 255.582 287.756 254.814 287.756 253.914V248.082H289.79V253.608C289.79 254.496 290.012 255.18 290.456 255.66C290.9 256.128 291.506 256.362 292.274 256.362C293.042 256.362 293.648 256.128 294.092 255.66C294.548 255.18 294.776 254.496 294.776 253.608V248.082H296.828ZM304.54 247.92C305.32 247.92 306.016 248.082 306.628 248.406C307.252 248.73 307.738 249.21 308.086 249.846C308.434 250.482 308.608 251.25 308.608 252.15V258H306.574V252.456C306.574 251.568 306.352 250.89 305.908 250.422C305.464 249.942 304.858 249.702 304.09 249.702C303.322 249.702 302.71 249.942 302.254 250.422C301.81 250.89 301.588 251.568 301.588 252.456V258H299.536V248.082H301.588V249.216C301.924 248.808 302.35 248.49 302.866 248.262C303.394 248.034 303.952 247.92 304.54 247.92ZM310.541 252.996C310.541 252 310.745 251.118 311.153 250.35C311.573 249.582 312.137 248.988 312.845 248.568C313.565 248.136 314.363 247.92 315.239 247.92C315.887 247.92 316.523 248.064 317.147 248.352C317.783 248.628 318.287 249 318.659 249.468V244.68H320.729V258H318.659V256.506C318.323 256.986 317.855 257.382 317.255 257.694C316.667 258.006 315.989 258.162 315.221 258.162C314.357 258.162 313.565 257.946 312.845 257.514C312.137 257.07 311.573 256.458 311.153 255.678C310.745 254.886 310.541 253.992 310.541 252.996ZM318.659 253.032C318.659 252.348 318.515 251.754 318.227 251.25C317.951 250.746 317.585 250.362 317.129 250.098C316.673 249.834 316.181 249.702 315.653 249.702C315.125 249.702 314.633 249.834 314.177 250.098C313.721 250.35 313.349 250.728 313.061 251.232C312.785 251.724 312.647 252.312 312.647 252.996C312.647 253.68 312.785 254.28 313.061 254.796C313.349 255.312 313.721 255.708 314.177 255.984C314.645 256.248 315.137 256.38 315.653 256.38C316.181 256.38 316.673 256.248 317.129 255.984C317.585 255.72 317.951 255.336 318.227 254.832C318.515 254.316 318.659 253.716 318.659 253.032ZM324.252 258.126C323.88 258.126 323.568 258 323.316 257.748C323.064 257.496 322.938 257.184 322.938 256.812C322.938 256.44 323.064 256.128 323.316 255.876C323.568 255.624 323.88 255.498 324.252 255.498C324.612 255.498 324.918 255.624 325.17 255.876C325.422 256.128 325.548 256.44 325.548 256.812C325.548 257.184 325.422 257.496 325.17 257.748C324.918 258 324.612 258.126 324.252 258.126Z" fill="#151515"/>
<path d="M57.7357 265.49V267.164H54.4057V278H52.3537V267.164H49.0057V265.49H57.7357ZM61.8659 269.522C62.1659 269.018 62.5619 268.628 63.0539 268.352C63.5579 268.064 64.1519 267.92 64.8359 267.92V270.044H64.3139C63.5099 270.044 62.8979 270.248 62.4779 270.656C62.0699 271.064 61.8659 271.772 61.8659 272.78V278H59.8139V268.082H61.8659V269.522ZM75.6501 268.082L69.5661 282.662H67.4421L69.4581 277.838L65.5521 268.082H67.8381L70.6281 275.642L73.5261 268.082H75.6501ZM85.4744 278.162C84.6944 278.162 83.9924 278.024 83.3684 277.748C82.7564 277.46 82.2704 277.076 81.9104 276.596C81.5504 276.104 81.3584 275.558 81.3344 274.958H83.4584C83.4944 275.378 83.6924 275.732 84.0524 276.02C84.4244 276.296 84.8864 276.434 85.4384 276.434C86.0144 276.434 86.4584 276.326 86.7704 276.11C87.0944 275.882 87.2564 275.594 87.2564 275.246C87.2564 274.874 87.0764 274.598 86.7164 274.418C86.3684 274.238 85.8104 274.04 85.0424 273.824C84.2984 273.62 83.6924 273.422 83.2244 273.23C82.7564 273.038 82.3484 272.744 82.0004 272.348C81.6644 271.952 81.4964 271.43 81.4964 270.782C81.4964 270.254 81.6524 269.774 81.9644 269.342C82.2764 268.898 82.7204 268.55 83.2964 268.298C83.8844 268.046 84.5564 267.92 85.3124 267.92C86.4404 267.92 87.3464 268.208 88.0304 268.784C88.7264 269.348 89.0984 270.122 89.1464 271.106H87.0944C87.0584 270.662 86.8784 270.308 86.5544 270.044C86.2304 269.78 85.7924 269.648 85.2404 269.648C84.7004 269.648 84.2864 269.75 83.9984 269.954C83.7104 270.158 83.5664 270.428 83.5664 270.764C83.5664 271.028 83.6624 271.25 83.8544 271.43C84.0464 271.61 84.2804 271.754 84.5564 271.862C84.8324 271.958 85.2404 272.084 85.7804 272.24C86.5004 272.432 87.0884 272.63 87.5444 272.834C88.0124 273.026 88.4144 273.314 88.7504 273.698C89.0864 274.082 89.2604 274.592 89.2724 275.228C89.2724 275.792 89.1164 276.296 88.8044 276.74C88.4924 277.184 88.0484 277.532 87.4724 277.784C86.9084 278.036 86.2424 278.162 85.4744 278.162ZM100.58 272.798C100.58 273.17 100.556 273.506 100.508 273.806H92.9296C92.9896 274.598 93.2836 275.234 93.8116 275.714C94.3396 276.194 94.9876 276.434 95.7556 276.434C96.8596 276.434 97.6396 275.972 98.0956 275.048H100.31C100.01 275.96 99.4636 276.71 98.6716 277.298C97.8916 277.874 96.9196 278.162 95.7556 278.162C94.8076 278.162 93.9556 277.952 93.1996 277.532C92.4556 277.1 91.8676 276.5 91.4356 275.732C91.0156 274.952 90.8056 274.052 90.8056 273.032C90.8056 272.012 91.0096 271.118 91.4176 270.35C91.8376 269.57 92.4196 268.97 93.1636 268.55C93.9196 268.13 94.7836 267.92 95.7556 267.92C96.6916 267.92 97.5256 268.124 98.2576 268.532C98.9896 268.94 99.5596 269.516 99.9676 270.26C100.376 270.992 100.58 271.838 100.58 272.798ZM98.4376 272.15C98.4256 271.394 98.1556 270.788 97.6276 270.332C97.0996 269.876 96.4456 269.648 95.6656 269.648C94.9576 269.648 94.3516 269.876 93.8476 270.332C93.3436 270.776 93.0436 271.382 92.9476 272.15H98.4376ZM101.915 272.996C101.915 272 102.119 271.118 102.527 270.35C102.947 269.582 103.511 268.988 104.219 268.568C104.939 268.136 105.731 267.92 106.595 267.92C107.375 267.92 108.053 268.076 108.629 268.388C109.217 268.688 109.685 269.066 110.033 269.522V268.082H112.103V278H110.033V276.524C109.685 276.992 109.211 277.382 108.611 277.694C108.011 278.006 107.327 278.162 106.559 278.162C105.707 278.162 104.927 277.946 104.219 277.514C103.511 277.07 102.947 276.458 102.527 275.678C102.119 274.886 101.915 273.992 101.915 272.996ZM110.033 273.032C110.033 272.348 109.889 271.754 109.601 271.25C109.325 270.746 108.959 270.362 108.503 270.098C108.047 269.834 107.555 269.702 107.027 269.702C106.499 269.702 106.007 269.834 105.551 270.098C105.095 270.35 104.723 270.728 104.435 271.232C104.159 271.724 104.021 272.312 104.021 272.996C104.021 273.68 104.159 274.28 104.435 274.796C104.723 275.312 105.095 275.708 105.551 275.984C106.019 276.248 106.511 276.38 107.027 276.38C107.555 276.38 108.047 276.248 108.503 275.984C108.959 275.72 109.325 275.336 109.601 274.832C109.889 274.316 110.033 273.716 110.033 273.032ZM116.85 269.522C117.15 269.018 117.546 268.628 118.038 268.352C118.542 268.064 119.136 267.92 119.82 267.92V270.044H119.298C118.494 270.044 117.882 270.248 117.462 270.656C117.054 271.064 116.85 271.772 116.85 272.78V278H114.798V268.082H116.85V269.522ZM121.022 273.032C121.022 272.012 121.226 271.118 121.634 270.35C122.054 269.57 122.63 268.97 123.362 268.55C124.094 268.13 124.934 267.92 125.882 267.92C127.082 267.92 128.072 268.208 128.852 268.784C129.644 269.348 130.178 270.158 130.454 271.214H128.24C128.06 270.722 127.772 270.338 127.376 270.062C126.98 269.786 126.482 269.648 125.882 269.648C125.042 269.648 124.37 269.948 123.866 270.548C123.374 271.136 123.128 271.964 123.128 273.032C123.128 274.1 123.374 274.934 123.866 275.534C124.37 276.134 125.042 276.434 125.882 276.434C127.07 276.434 127.856 275.912 128.24 274.868H130.454C130.166 275.876 129.626 276.68 128.834 277.28C128.042 277.868 127.058 278.162 125.882 278.162C124.934 278.162 124.094 277.952 123.362 277.532C122.63 277.1 122.054 276.5 121.634 275.732C121.226 274.952 121.022 274.052 121.022 273.032ZM137.629 267.92C138.385 267.92 139.057 268.082 139.645 268.406C140.245 268.73 140.713 269.21 141.049 269.846C141.397 270.482 141.571 271.25 141.571 272.15V278H139.537V272.456C139.537 271.568 139.315 270.89 138.871 270.422C138.427 269.942 137.821 269.702 137.053 269.702C136.285 269.702 135.673 269.942 135.217 270.422C134.773 270.89 134.551 271.568 134.551 272.456V278H132.499V264.68H134.551V269.234C134.899 268.814 135.337 268.49 135.865 268.262C136.405 268.034 136.993 267.92 137.629 267.92ZM145.233 266.768C144.861 266.768 144.549 266.642 144.297 266.39C144.045 266.138 143.919 265.826 143.919 265.454C143.919 265.082 144.045 264.77 144.297 264.518C144.549 264.266 144.861 264.14 145.233 264.14C145.593 264.14 145.899 264.266 146.151 264.518C146.403 264.77 146.529 265.082 146.529 265.454C146.529 265.826 146.403 266.138 146.151 266.39C145.899 266.642 145.593 266.768 145.233 266.768ZM146.241 268.082V278H144.189V268.082H146.241ZM153.939 267.92C154.719 267.92 155.415 268.082 156.027 268.406C156.651 268.73 157.137 269.21 157.485 269.846C157.833 270.482 158.007 271.25 158.007 272.15V278H155.973V272.456C155.973 271.568 155.751 270.89 155.307 270.422C154.863 269.942 154.257 269.702 153.489 269.702C152.721 269.702 152.109 269.942 151.653 270.422C151.209 270.89 150.987 271.568 150.987 272.456V278H148.935V268.082H150.987V269.216C151.323 268.808 151.749 268.49 152.265 268.262C152.793 268.034 153.351 267.92 153.939 267.92ZM164.62 267.92C165.388 267.92 166.066 268.076 166.654 268.388C167.254 268.688 167.722 269.066 168.058 269.522V268.082H170.128V278.162C170.128 279.074 169.936 279.884 169.552 280.592C169.168 281.312 168.61 281.876 167.878 282.284C167.158 282.692 166.294 282.896 165.286 282.896C163.942 282.896 162.826 282.578 161.938 281.942C161.05 281.318 160.546 280.466 160.426 279.386H162.46C162.616 279.902 162.946 280.316 163.45 280.628C163.966 280.952 164.578 281.114 165.286 281.114C166.114 281.114 166.78 280.862 167.284 280.358C167.8 279.854 168.058 279.122 168.058 278.162V276.506C167.71 276.974 167.236 277.37 166.636 277.694C166.048 278.006 165.376 278.162 164.62 278.162C163.756 278.162 162.964 277.946 162.244 277.514C161.536 277.07 160.972 276.458 160.552 275.678C160.144 274.886 159.94 273.992 159.94 272.996C159.94 272 160.144 271.118 160.552 270.35C160.972 269.582 161.536 268.988 162.244 268.568C162.964 268.136 163.756 267.92 164.62 267.92ZM168.058 273.032C168.058 272.348 167.914 271.754 167.626 271.25C167.35 270.746 166.984 270.362 166.528 270.098C166.072 269.834 165.58 269.702 165.052 269.702C164.524 269.702 164.032 269.834 163.576 270.098C163.12 270.35 162.748 270.728 162.46 271.232C162.184 271.724 162.046 272.312 162.046 272.996C162.046 273.68 162.184 274.28 162.46 274.796C162.748 275.312 163.12 275.708 163.576 275.984C164.044 276.248 164.536 276.38 165.052 276.38C165.58 276.38 166.072 276.248 166.528 275.984C166.984 275.72 167.35 275.336 167.626 274.832C167.914 274.316 168.058 273.716 168.058 273.032ZM181.657 269.756H179.821V278H177.751V269.756H176.581V268.082H177.751V267.38C177.751 266.24 178.051 265.412 178.651 264.896C179.263 264.368 180.217 264.104 181.513 264.104V265.814C180.889 265.814 180.451 265.934 180.199 266.174C179.947 266.402 179.821 266.804 179.821 267.38V268.082H181.657V269.756ZM187.778 278.162C186.842 278.162 185.996 277.952 185.24 277.532C184.484 277.1 183.89 276.5 183.458 275.732C183.026 274.952 182.81 274.052 182.81 273.032C182.81 272.024 183.032 271.13 183.476 270.35C183.92 269.57 184.526 268.97 185.294 268.55C186.062 268.13 186.92 267.92 187.868 267.92C188.816 267.92 189.674 268.13 190.442 268.55C191.21 268.97 191.816 269.57 192.26 270.35C192.704 271.13 192.926 272.024 192.926 273.032C192.926 274.04 192.698 274.934 192.242 275.714C191.786 276.494 191.162 277.1 190.37 277.532C189.59 277.952 188.726 278.162 187.778 278.162ZM187.778 276.38C188.306 276.38 188.798 276.254 189.254 276.002C189.722 275.75 190.1 275.372 190.388 274.868C190.676 274.364 190.82 273.752 190.82 273.032C190.82 272.312 190.682 271.706 190.406 271.214C190.13 270.71 189.764 270.332 189.308 270.08C188.852 269.828 188.36 269.702 187.832 269.702C187.304 269.702 186.812 269.828 186.356 270.08C185.912 270.332 185.558 270.71 185.294 271.214C185.03 271.706 184.898 272.312 184.898 273.032C184.898 274.1 185.168 274.928 185.708 275.516C186.26 276.092 186.95 276.38 187.778 276.38ZM197.006 269.522C197.306 269.018 197.702 268.628 198.194 268.352C198.698 268.064 199.292 267.92 199.976 267.92V270.044H199.454C198.65 270.044 198.038 270.248 197.618 270.656C197.21 271.064 197.006 271.772 197.006 272.78V278H194.954V268.082H197.006V269.522ZM210.84 278.162C209.904 278.162 209.058 277.952 208.302 277.532C207.546 277.1 206.952 276.5 206.52 275.732C206.088 274.952 205.872 274.052 205.872 273.032C205.872 272.024 206.094 271.13 206.538 270.35C206.982 269.57 207.588 268.97 208.356 268.55C209.124 268.13 209.982 267.92 210.93 267.92C211.878 267.92 212.736 268.13 213.504 268.55C214.272 268.97 214.878 269.57 215.322 270.35C215.766 271.13 215.988 272.024 215.988 273.032C215.988 274.04 215.76 274.934 215.304 275.714C214.848 276.494 214.224 277.1 213.432 277.532C212.652 277.952 211.788 278.162 210.84 278.162ZM210.84 276.38C211.368 276.38 211.86 276.254 212.316 276.002C212.784 275.75 213.162 275.372 213.45 274.868C213.738 274.364 213.882 273.752 213.882 273.032C213.882 272.312 213.744 271.706 213.468 271.214C213.192 270.71 212.826 270.332 212.37 270.08C211.914 269.828 211.422 269.702 210.894 269.702C210.366 269.702 209.874 269.828 209.418 270.08C208.974 270.332 208.62 270.71 208.356 271.214C208.092 271.706 207.96 272.312 207.96 273.032C207.96 274.1 208.23 274.928 208.77 275.516C209.322 276.092 210.012 276.38 210.84 276.38ZM220.411 269.756V275.246C220.411 275.618 220.495 275.888 220.663 276.056C220.843 276.212 221.143 276.29 221.563 276.29H222.823V278H221.203C220.279 278 219.571 277.784 219.079 277.352C218.587 276.92 218.341 276.218 218.341 275.246V269.756H217.171V268.082H218.341V265.616H220.411V268.082H222.823V269.756H220.411ZM229.844 267.92C230.6 267.92 231.272 268.082 231.86 268.406C232.46 268.73 232.928 269.21 233.264 269.846C233.612 270.482 233.786 271.25 233.786 272.15V278H231.752V272.456C231.752 271.568 231.53 270.89 231.086 270.422C230.642 269.942 230.036 269.702 229.268 269.702C228.5 269.702 227.888 269.942 227.432 270.422C226.988 270.89 226.766 271.568 226.766 272.456V278H224.714V264.68H226.766V269.234C227.114 268.814 227.552 268.49 228.08 268.262C228.62 268.034 229.208 267.92 229.844 267.92ZM245.494 272.798C245.494 273.17 245.47 273.506 245.422 273.806H237.844C237.904 274.598 238.198 275.234 238.726 275.714C239.254 276.194 239.902 276.434 240.67 276.434C241.774 276.434 242.554 275.972 243.01 275.048H245.224C244.924 275.96 244.378 276.71 243.586 277.298C242.806 277.874 241.834 278.162 240.67 278.162C239.722 278.162 238.87 277.952 238.114 277.532C237.37 277.1 236.782 276.5 236.35 275.732C235.93 274.952 235.72 274.052 235.72 273.032C235.72 272.012 235.924 271.118 236.332 270.35C236.752 269.57 237.334 268.97 238.078 268.55C238.834 268.13 239.698 267.92 240.67 267.92C241.606 267.92 242.44 268.124 243.172 268.532C243.904 268.94 244.474 269.516 244.882 270.26C245.29 270.992 245.494 271.838 245.494 272.798ZM243.352 272.15C243.34 271.394 243.07 270.788 242.542 270.332C242.014 269.876 241.36 269.648 240.58 269.648C239.872 269.648 239.266 269.876 238.762 270.332C238.258 270.776 237.958 271.382 237.862 272.15H243.352ZM249.565 269.522C249.865 269.018 250.261 268.628 250.753 268.352C251.257 268.064 251.851 267.92 252.535 267.92V270.044H252.013C251.209 270.044 250.597 270.248 250.177 270.656C249.769 271.064 249.565 271.772 249.565 272.78V278H247.513V268.082H249.565V269.522ZM261.491 269.756V275.246C261.491 275.618 261.575 275.888 261.743 276.056C261.923 276.212 262.223 276.29 262.643 276.29H263.903V278H262.283C261.359 278 260.651 277.784 260.159 277.352C259.667 276.92 259.421 276.218 259.421 275.246V269.756H258.251V268.082H259.421V265.616H261.491V268.082H263.903V269.756H261.491ZM267.846 269.522C268.146 269.018 268.542 268.628 269.034 268.352C269.538 268.064 270.132 267.92 270.816 267.92V270.044H270.294C269.49 270.044 268.878 270.248 268.458 270.656C268.05 271.064 267.846 271.772 267.846 272.78V278H265.794V268.082H267.846V269.522ZM273.747 266.768C273.375 266.768 273.063 266.642 272.811 266.39C272.559 266.138 272.433 265.826 272.433 265.454C272.433 265.082 272.559 264.77 272.811 264.518C273.063 264.266 273.375 264.14 273.747 264.14C274.107 264.14 274.413 264.266 274.665 264.518C274.917 264.77 275.043 265.082 275.043 265.454C275.043 265.826 274.917 266.138 274.665 266.39C274.413 266.642 274.107 266.768 273.747 266.768ZM274.755 268.082V278H272.703V268.082H274.755ZM279.501 269.54C279.849 269.084 280.323 268.7 280.923 268.388C281.523 268.076 282.201 267.92 282.957 267.92C283.821 267.92 284.607 268.136 285.315 268.568C286.035 268.988 286.599 269.582 287.007 270.35C287.415 271.118 287.619 272 287.619 272.996C287.619 273.992 287.415 274.886 287.007 275.678C286.599 276.458 286.035 277.07 285.315 277.514C284.607 277.946 283.821 278.162 282.957 278.162C282.201 278.162 281.529 278.012 280.941 277.712C280.353 277.4 279.873 277.016 279.501 276.56V282.716H277.449V268.082H279.501V269.54ZM285.531 272.996C285.531 272.312 285.387 271.724 285.099 271.232C284.823 270.728 284.451 270.35 283.983 270.098C283.527 269.834 283.035 269.702 282.507 269.702C281.991 269.702 281.499 269.834 281.031 270.098C280.575 270.362 280.203 270.746 279.915 271.25C279.639 271.754 279.501 272.348 279.501 273.032C279.501 273.716 279.639 274.316 279.915 274.832C280.203 275.336 280.575 275.72 281.031 275.984C281.499 276.248 281.991 276.38 282.507 276.38C283.035 276.38 283.527 276.248 283.983 275.984C284.451 275.708 284.823 275.312 285.099 274.796C285.387 274.28 285.531 273.68 285.531 272.996ZM293.248 278.162C292.468 278.162 291.766 278.024 291.142 277.748C290.53 277.46 290.044 277.076 289.684 276.596C289.324 276.104 289.132 275.558 289.108 274.958H291.232C291.268 275.378 291.466 275.732 291.826 276.02C292.198 276.296 292.66 276.434 293.212 276.434C293.788 276.434 294.232 276.326 294.544 276.11C294.868 275.882 295.03 275.594 295.03 275.246C295.03 274.874 294.85 274.598 294.49 274.418C294.142 274.238 293.584 274.04 292.816 273.824C292.072 273.62 291.466 273.422 290.998 273.23C290.53 273.038 290.122 272.744 289.774 272.348C289.438 271.952 289.27 271.43 289.27 270.782C289.27 270.254 289.426 269.774 289.738 269.342C290.05 268.898 290.494 268.55 291.07 268.298C291.658 268.046 292.33 267.92 293.086 267.92C294.214 267.92 295.12 268.208 295.804 268.784C296.5 269.348 296.872 270.122 296.92 271.106H294.868C294.832 270.662 294.652 270.308 294.328 270.044C294.004 269.78 293.566 269.648 293.014 269.648C292.474 269.648 292.06 269.75 291.772 269.954C291.484 270.158 291.34 270.428 291.34 270.764C291.34 271.028 291.436 271.25 291.628 271.43C291.82 271.61 292.054 271.754 292.33 271.862C292.606 271.958 293.014 272.084 293.554 272.24C294.274 272.432 294.862 272.63 295.318 272.834C295.786 273.026 296.188 273.314 296.524 273.698C296.86 274.082 297.034 274.592 297.046 275.228C297.046 275.792 296.89 276.296 296.578 276.74C296.266 277.184 295.822 277.532 295.246 277.784C294.682 278.036 294.016 278.162 293.248 278.162ZM301.837 265.49L301.603 274.22H299.893L299.659 265.49H301.837ZM300.811 278.126C300.439 278.126 300.127 278 299.875 277.748C299.623 277.496 299.497 277.184 299.497 276.812C299.497 276.44 299.623 276.128 299.875 275.876C300.127 275.624 300.439 275.498 300.811 275.498C301.171 275.498 301.477 275.624 301.729 275.876C301.981 276.128 302.107 276.44 302.107 276.812C302.107 277.184 301.981 277.496 301.729 277.748C301.477 278 301.171 278.126 300.811 278.126Z" fill="#89C5CC"/>
<defs>
<clipPath id="clip0_1_13474">
<rect width="300" height="218" fill="white" transform="translate(26)"/>
</clipPath>
</defs>
</svg>
